<svg width="197" height="49" viewBox="0 0 197 49" fill="none" xmlns="http://www.w3.org/2000/svg">
<path d="M190.033 19.9457C193.994 19.9457 197 22.9557 197 27.0596C197 30.8901 193.994 34.1736 190.033 34.1736C186.071 34.1736 182.93 30.8901 182.93 27.0596C182.928 22.9557 186.071 19.9457 190.033 19.9457Z" fill="#F21A05"/>
<path d="M93.7838 9.37864C91.2787 7.171 87.801 6.06519 83.3508 6.06519C80.1242 6.08115 76.4532 6.98936 72.3438 8.78781L71.9412 6.62807L67.2578 6.89754V34.2874H72.8281V13.5304C74.265 12.9017 75.945 12.3767 77.8742 11.9555C79.8033 11.5304 81.4316 11.3208 82.7629 11.3208C86.4737 11.3208 88.937 11.9136 90.1487 13.0993C91.3584 14.2869 91.9642 16.1832 91.9642 18.786L92.02 34.2874H97.5385V18.786C97.5385 14.7261 96.2849 11.5883 93.7838 9.37864Z" fill="white"/>
<path d="M120.059 29.5297L119.986 28.8171L119.447 28.8949L119.256 28.9229C118.772 28.9947 118.056 29.0726 117.104 29.1544C116.153 29.2342 115.2 29.2742 114.25 29.2742C111.739 29.2742 109.971 28.9488 108.949 28.3041C107.924 27.6554 107.414 26.3539 107.414 24.3958V11.645H117.116L117.128 6.52311H107.414V0L103.996 0.403203L102.167 6.52311H97.9954L97.5391 11.645H101.898V24.3958C101.898 31.1345 105.899 34.5038 113.901 34.5038C116.324 34.5038 118.533 34.3242 120.522 33.9649L120.059 29.5297Z" fill="white"/>
<path d="M26.7671 10.1431C24.0308 7.54626 20.312 6.24683 15.6107 6.24683C12.5236 6.26479 9.01604 7.173 5.08797 8.96945L4.6834 6.81371L0 7.08317V48.8666L3.90018 48.8806L5.56428 47.1799V39.058H5.57225V32.3692C6.9693 33.0339 8.3803 33.5569 9.80126 33.9361C11.6826 34.4371 13.5819 34.6866 15.5031 34.6866C16.1607 34.6866 16.8005 34.6607 17.4183 34.6088C21.2307 34.2954 24.3298 33.0139 26.7133 30.7644C29.4855 28.1495 30.8726 24.7103 30.8726 20.4408C30.8726 16.1712 29.5034 12.74 26.7671 10.1431ZM23.0662 26.9639C21.5755 28.6266 18.8851 29.459 14.9909 29.459C12.2287 29.459 9.08779 28.7563 5.57225 27.3551V13.77C8.69319 12.2589 11.8341 11.5044 14.9909 11.5044C16.362 11.5044 17.5837 11.6042 18.6539 11.8058C20.6428 12.1771 22.1176 12.8937 23.0802 13.9576C24.559 15.5924 25.3003 17.7541 25.3003 20.4408C25.3003 23.1275 24.555 25.3012 23.0662 26.9639Z" fill="white"/>
<path d="M135.621 34.7315C137.357 34.6756 138.933 34.4421 140.354 34.0309C138.702 34.4461 137.124 34.6756 135.621 34.7315Z" fill="white"/>
<path d="M148.984 6.54712V22.0505C148.984 26.0925 147.734 29.2223 145.229 31.4319C143.9 32.6056 142.298 33.4679 140.416 34.0148C140.396 34.0208 140.375 34.0288 140.355 34.0308C138.704 34.446 137.124 34.6755 135.623 34.7314C135.354 34.7414 135.079 34.7434 134.8 34.7434C134.571 34.7434 134.338 34.7394 134.105 34.7314C132.6 34.6755 131.024 34.446 129.374 34.0308C129.354 34.0308 129.336 34.0248 129.312 34.0148C127.43 33.4679 125.828 32.6056 124.499 31.4319C121.994 29.2203 120.744 26.0925 120.744 22.0505V6.54712H126.314V22.0505C126.314 24.6573 126.92 26.5496 128.13 27.7372C129.266 28.849 131.5 29.4399 134.836 29.5097H134.892C138.226 29.4379 140.458 28.849 141.598 27.7372C142.808 26.5536 143.414 24.6573 143.414 22.0505V6.54712H148.984Z" fill="white"/>
<path d="M59.5681 21.9724C58.4002 30.1861 46.7595 31.2261 41.0697 27.1062H41.0677C37.297 23.8586 37.2731 17.8585 40.6212 14.1977C43.1662 11.7725 46.9907 11.4033 50.3587 11.6029L52.3497 6.47899C46.038 5.56479 38.728 7.06982 34.8776 12.565C31.4717 17.3355 31.7148 25.2499 35.9319 29.6612C44.2922 38.6833 64.3671 35.4597 65.2838 21.9724H59.5681Z" fill="white"/>
<path d="M65.3487 20.1765H59.6649C59.5951 15.9888 56.4343 12.344 52.1934 11.831L54.1405 6.82288C60.3584 8.13828 65.5161 13.6314 65.3487 20.1765Z" fill="#F21A05"/>
<path d="M152.712 8.91312C155.701 7.07476 160.578 5.76135 165.403 5.76135C172.272 5.76135 178.829 8.49196 178.775 16.1608L178.724 26.2469V26.5623C178.724 28.9256 179.144 29.9755 181.607 29.9755H181.974V34.7561C175.995 34.7561 172.797 33.3908 172.797 28.2948C170.28 32.3927 165.034 34.8599 159.267 35.0175C152.973 35.2271 149.932 31.4466 149.932 27.4006C149.932 22.6739 154.127 17.5261 162.099 17.7357L168.55 17.8415C170.018 17.8934 172.641 17.9473 172.799 16.1608C172.747 12.3264 169.128 11.013 165.036 11.013C161.102 11.013 156.698 12.2206 154.442 13.5879L152.712 8.91312ZM168.394 22.5162L162.258 22.4105C158.324 22.3586 156.174 24.7219 156.174 26.8217C156.174 28.6082 157.746 30.237 161.208 30.0793C165.56 29.8158 172.587 26.8217 172.799 21.7278V21.4124C171.698 22.2548 170.23 22.5162 168.394 22.5162Z" fill="white"/>
</svg>
